<?xml version="1.0" encoding="UTF-8" standalone="no"?>
<svg
   viewBox="0 0 438.31875 209.603"
   version="1.1"
   id="svg95"
   sodipodi:docname="NI_Logo_mixed_dark.svg"
   width="438.31876"
   height="209.603"
   inkscape:version="1.4.3 (1:1.4.3+202512261035+0d15f75042)"
   xml:space="preserve"
   xmlns:inkscape="http://www.inkscape.org/namespaces/inkscape"
   xmlns:sodipodi="http://sodipodi.sourceforge.net/DTD/sodipodi-0.dtd"
   xmlns="http://www.w3.org/2000/svg"
   xmlns:svg="http://www.w3.org/2000/svg"><sodipodi:namedview
     pagecolor="#ffffff"
     bordercolor="#666666"
     borderopacity="1"
     objecttolerance="10"
     gridtolerance="10"
     guidetolerance="10"
     inkscape:pageopacity="0"
     inkscape:pageshadow="2"
     inkscape:window-width="1920"
     inkscape:window-height="1011"
     id="namedview97"
     showgrid="false"
     fit-margin-top="0"
     fit-margin-left="0"
     fit-margin-right="0"
     fit-margin-bottom="0"
     inkscape:zoom="1.9941244"
     inkscape:cx="275.3088"
     inkscape:cy="36.858282"
     inkscape:window-x="0"
     inkscape:window-y="0"
     inkscape:window-maximized="1"
     inkscape:current-layer="g1"
     inkscape:showpageshadow="0"
     inkscape:pagecheckerboard="1"
     inkscape:deskcolor="#505050" /><defs
     id="defs10"><style
       id="style8">.cls-1{isolation:isolate;}.cls-2{opacity:0.22;mix-blend-mode:multiply;}.cls-3{fill:#fff;}.cls-4{fill:#222221;}.cls-5{fill:#4d8e94;}.cls-6{fill:#874299;}.cls-7{fill:#993334;}.cls-8{font-size:12px;fill:#231f20;font-family:MyriadPro-Bold, Myriad Pro;font-weight:700;}.cls-9{letter-spacing:0.02em;}.cls-10{letter-spacing:-0.05em;}.cls-11{letter-spacing:0.01em;}.cls-12{letter-spacing:-0.02em;}.cls-13{letter-spacing:0em;}.cls-14{letter-spacing:0.01em;}.cls-15{letter-spacing:0em;}.cls-16{letter-spacing:0em;}.cls-17{letter-spacing:-0.02em;}.cls-18{letter-spacing:-0.01em;}</style><style
       id="style1">.cls-1,.cls-2{stroke-width:0px;}.cls-2{fill:#0089cf;}</style></defs><g
     class="cls-1"
     id="g93"
     transform="translate(-41.580002,-55.009998)"><g
       id="Layer_1"
       data-name="Layer 1"><text
         x="-150.78999"
         y="-194.53999"
         id="text16" /><path
         class="cls-4"
         d="m 354.9,294.64 v -43.71 h 6.2 l 14,22.09 a 124.91,124.91 0 0 1 7.8,14.23 l 0.15,-0.07 c -0.51,-5.83 -0.62,-11.16 -0.62,-17.93 v -18.32 h 5.32 v 43.71 H 382 L 368.1,272.48 A 143.12,143.12 0 0 1 360,257.85 l -0.19,0.06 c 0.33,5.54 0.41,10.81 0.41,18 v 18.69 z"
         transform="translate(-150.79,-194.54)"
         id="path18"
         style="fill:#ffffff;fill-opacity:1" /><path
         class="cls-4"
         d="m 420.19,274.15 h -16.95 v 15.78 h 18.95 v 4.71 h -24.62 v -43.71 h 23.63 v 4.7 h -18 v 13.84 h 16.95 z"
         transform="translate(-150.79,-194.54)"
         id="path20"
         style="fill:#ffffff;fill-opacity:1" /><path
         class="cls-4"
         d="M 437.81,255.7 H 424.5 v -4.77 h 32.37 v 4.77 h -13.38 v 38.94 h -5.68 z"
         transform="translate(-150.79,-194.54)"
         id="path22"
         style="fill:#ffffff;fill-opacity:1" /><path
         class="cls-4"
         d="m 468.82,294.64 -11.07,-43.71 h 6 l 5.21,22.12 c 1.25,5.46 2.42,10.87 3.2,15.1 h 0.15 c 0.71,-4.33 2.08,-9.55 3.56,-15.17 l 5.87,-22.05 h 5.85 l 5.34,22.15 c 1.22,5.23 2.4,10.38 3.07,15 h 0.14 c 0.87,-4.79 2.09,-9.66 3.45,-15.1 l 5.78,-22 h 5.79 l -12.4,43.71 h -5.9 l -5.5,-22.75 a 131.78,131.78 0 0 1 -2.88,-14.29 h -0.13 A 124.94,124.94 0 0 1 481,271.89 l -6.19,22.75 z"
         transform="translate(-150.79,-194.54)"
         id="path24"
         style="fill:#ffffff;fill-opacity:1" /><path
         class="cls-4"
         d="m 553.94,272.34 c 0,15 -9.14,23 -20.28,23 -11.59,0 -19.64,-9 -19.64,-22.18 0,-13.85 8.57,-23 20.24,-23 11.93,0.05 19.68,9.2 19.68,22.18 z m -34,0.7 c 0,9.35 5.08,17.72 14,17.72 8.92,0 14,-8.24 14,-18.17 0,-8.7 -4.54,-17.78 -13.93,-17.78 -9.39,0 -14.01,8.66 -14.01,18.19 z"
         transform="translate(-150.79,-194.54)"
         id="path26"
         style="fill:#ffffff;fill-opacity:1" /><path
         class="cls-4"
         d="m 561.24,251.53 a 59.43,59.43 0 0 1 10.86,-0.94 c 6,0 9.94,1.14 12.66,3.59 a 11,11 0 0 1 3.43,8.31 c 0,5.75 -3.66,9.56 -8.24,11.14 v 0.16 c 3.34,1.17 5.35,4.32 6.41,8.85 1.44,6.11 2.48,10.29 3.36,12 h -5.85 c -0.69,-1.27 -1.67,-5 -2.87,-10.47 -1.3,-6 -3.66,-8.3 -8.77,-8.47 h -5.35 v 18.94 h -5.64 z m 5.64,19.89 h 5.77 c 6,0 9.87,-3.29 9.87,-8.3 0,-5.67 -4.1,-8.14 -10,-8.15 a 24.44,24.44 0 0 0 -5.59,0.5 z"
         transform="translate(-150.79,-194.54)"
         id="path28"
         style="fill:#ffffff;fill-opacity:1" /><path
         class="cls-4"
         d="m 596.13,250.93 h 5.64 V 272 h 0.2 c 1.15,-1.7 2.36,-3.22 3.45,-4.65 l 13.36,-16.42 h 7 l -15.78,18.58 17,25.13 h -6.69 L 606,273.2 601.77,278 v 16.65 h -5.64 z"
         transform="translate(-150.79,-194.54)"
         id="path30"
         style="fill:#ffffff;fill-opacity:1" /><path
         class="cls-4"
         d="m 360.57,309.6 v 43.71 H 354.9 V 309.6 Z"
         transform="translate(-150.79,-194.54)"
         id="path32"
         style="fill:#ffffff;fill-opacity:1" /><path
         class="cls-4"
         d="M 370.4,353.31 V 309.6 h 6.2 l 14,22.09 a 124.91,124.91 0 0 1 7.8,14.23 l 0.15,-0.06 c -0.52,-5.84 -0.62,-11.17 -0.62,-17.94 V 309.6 h 5.32 v 43.71 h -5.74 l -13.89,-22.16 a 142.06,142.06 0 0 1 -8.13,-14.63 l -0.19,0.07 c 0.33,5.53 0.41,10.8 0.41,18 v 18.69 z"
         transform="translate(-150.79,-194.54)"
         id="path34"
         style="fill:#ffffff;fill-opacity:1" /><path
         class="cls-4"
         d="m 412.34,346.43 a 19.62,19.62 0 0 0 10.08,2.83 c 5.77,0 9.17,-3 9.17,-7.44 0,-4.05 -2.37,-6.44 -8.27,-8.65 -7.13,-2.53 -11.56,-6.28 -11.56,-12.4 0,-6.8 5.66,-11.85 14.17,-11.85 a 20.11,20.11 0 0 1 9.65,2.11 l -1.58,4.63 a 16.54,16.54 0 0 0 -8.25,-2.08 c -6,0 -8.28,3.56 -8.28,6.54 0,4.06 2.66,6.06 8.7,8.39 7.41,2.91 11.14,6.47 11.14,12.88 0,6.7 -4.93,12.6 -15.29,12.6 -4.23,0 -8.84,-1.28 -11.17,-2.85 z"
         transform="translate(-150.79,-194.54)"
         id="path36"
         style="fill:#ffffff;fill-opacity:1" /><path
         class="cls-4"
         d="m 453.38,314.37 h -13.32 v -4.77 h 32.37 v 4.77 h -13.38 v 38.94 h -5.67 z"
         transform="translate(-150.79,-194.54)"
         id="path38"
         style="fill:#ffffff;fill-opacity:1" /><path
         class="cls-4"
         d="m 482.94,309.6 v 43.71 h -5.68 V 309.6 Z"
         transform="translate(-150.79,-194.54)"
         id="path40"
         style="fill:#ffffff;fill-opacity:1" /><path
         class="cls-4"
         d="m 501.11,314.37 h -13.32 v -4.77 h 32.37 v 4.77 h -13.38 v 38.94 h -5.67 z"
         transform="translate(-150.79,-194.54)"
         id="path42"
         style="fill:#ffffff;fill-opacity:1" /><path
         class="cls-4"
         d="m 530.64,309.6 v 25.9 c 0,9.75 4.33,13.89 10.22,13.89 6.44,0 10.63,-4.28 10.63,-13.89 v -25.9 h 5.68 v 25.5 c 0,13.44 -7.06,18.92 -16.54,18.92 -8.92,0 -15.66,-5.09 -15.66,-18.67 V 309.6 Z"
         transform="translate(-150.79,-194.54)"
         id="path44"
         style="fill:#ffffff;fill-opacity:1" /><path
         class="cls-4"
         d="M 575.29,314.37 H 562 v -4.77 h 32.36 v 4.77 H 581 v 38.94 h -5.68 z"
         transform="translate(-150.79,-194.54)"
         id="path46"
         style="fill:#ffffff;fill-opacity:1" /><path
         class="cls-4"
         d="m 621.8,332.82 h -16.95 v 15.79 h 18.95 v 4.7 H 599.18 V 309.6 h 23.63 v 4.7 h -18 v 13.84 h 16.99 z"
         transform="translate(-150.79,-194.54)"
         id="path48"
         style="fill:#ffffff;fill-opacity:1" /><rect
         class="cls-5"
         x="63.830002"
         y="55.009998"
         width="10.71"
         height="102.94"
         id="rect50" /><rect
         class="cls-5"
         x="41.580002"
         y="55.009998"
         width="2.6300001"
         height="102.94"
         id="rect52" /><rect
         class="cls-6"
         x="115.64"
         y="55.009998"
         width="15.8"
         height="102.94"
         id="rect54" /><rect
         class="cls-6"
         x="93.589996"
         y="55.009998"
         width="5.1199999"
         height="102.94"
         id="rect56" /><rect
         class="cls-7"
         x="167.83"
         y="55.009998"
         width="13.07"
         height="102.94"
         id="rect58" /><rect
         class="cls-7"
         x="148.50999"
         y="55.009998"
         width="5.1199999"
         height="102.94"
         id="rect60" /></g><g
       id="g1"
       transform="matrix(0.55066837,0,0,0.55066837,6.4439692,146.81159)"><polygon
         class="cls-2"
         points="830.7,125.05 830.7,120.79 859.26,120.79 859.26,125.05 848.21,125.05 848.21,151.68 841.76,151.68 841.76,125.05 "
         id="polygon1"
         style="opacity:1" /><polygon
         class="cls-1"
         points="64.23,63.91 96.29,63.91 137.7,175.57 177.84,63.91 199.38,63.91 147.64,208.22 117.62,208.22 "
         id="polygon2"
         style="fill:#ffffff;fill-opacity:1" /><path
         class="cls-1"
         d="m 216.84,63.91 h 30.04 v 88.5 c 0,16.01 2.71,26.61 8.15,31.81 5.42,5.22 12.46,7.81 21.11,7.81 8.65,0 15.29,-2.56 20.33,-7.7 5.04,-5.15 7.56,-15.06 7.56,-29.76 V 63.91 h 26.13 v 88.63 c 0,16.71 -2.1,28.68 -6.29,35.93 -4.19,7.25 -10.26,12.95 -18.18,17.12 -7.94,4.16 -17.98,6.24 -30.13,6.24 -12.15,0 -22.23,-1.94 -30.82,-5.8 -8.58,-3.86 -15.38,-9.63 -20.38,-17.27 -5.01,-7.64 -7.52,-19.81 -7.52,-36.52 z"
         id="path2"
         style="fill:#ffffff;fill-opacity:1" /><path
         class="cls-2"
         d="m 390.56,130.4 c 0,-0.63 0.48,-1.26 1.11,-1.26 0.63,0 1.12,0.64 1.12,1.26 0,0.62 -0.47,1.11 -1.12,1.11 -0.65,0 -1.11,-0.47 -1.11,-1.11"
         id="path3"
         style="opacity:1" /><path
         class="cls-2"
         d="m 534.85,64.48 c -6.53,-0.8 -21.36,0.79 -34.09,3.65 7.97,-3.98 10.2,-4.6 13.06,-6.37 0.79,-0.47 1.27,-1.58 1.27,-3.34 0,-1.91 -1.74,-2.22 -3.81,-1.91 -2.09,0.16 -6.54,1.75 -11.97,3.67 -10.83,4.46 -26.42,11.78 -44.9,24.22 -16.25,11.14 -27.06,20.69 -38.86,32.63 -3.07,3.14 -6.61,7.06 -10.3,11.4 -0.82,-1.44 -1.32,-1.77 -2.76,-1.37 4.14,-9.4 4.61,-9.88 6.85,-15.28 0.95,-2.56 0.47,-4.48 -0.47,-5.57 -1.29,-2.25 -3.04,-0.65 -4.15,0.16 -1.75,2.06 -2.24,2.55 -6.06,7.31 4.77,-15.93 7.33,-17.2 11.78,-26.28 0.49,-1.11 0.49,-3 -0.16,-4.45 -0.47,-1.12 -1.11,-1.76 -2.06,-1.27 -1.76,0.79 -2.23,1.74 -5.59,5.72 4.77,-9.08 11.31,-19.74 11.96,-21.48 0.79,-1.92 1.89,-2.24 -0.16,-5.1 -1.6,-2.4 -3.03,-0.64 -4.15,0.47 -0.95,0.47 -2.88,2.71 -6.2,6.69 7,-13.07 13.54,-19.11 14.81,-21.34 1.59,-2.55 1.75,-3.19 0.49,-6.05 -1.13,-2.55 -3.36,-1.44 -4.46,0 -4.95,4.77 -4.63,3.67 -12.91,13.22 4.3,-11.32 11.8,-19.91 14.48,-24.36 1.14,-1.75 1.28,-2.39 0.16,-6.7 -0.63,-1.9 -2.21,-2.56 -3.81,-2.39 -2.39,0.49 -4.61,1.77 -9.08,5.57 -9.08,8.13 -21.17,19.93 -31.06,41.1 -9.56,19.9 -11.62,38.7 -11.62,51.59 0,20.04 5.24,37.38 10.09,48.29 0,-0.41 -0.05,-0.74 -0.07,-1.16 -0.31,-5.41 0.64,-11.62 1.6,-14.64 2.02,-7.97 4.65,-12.25 6.87,-15.71 l -3.86,-5.3 5.11,1.58 -3.02,-6.69 c 0,0 3.84,0.45 6.81,4.4 1.86,-1.68 5.62,-3.16 9.27,-0.25 2.4,-0.16 3.83,0.32 5.1,0.95 2.7,1.58 2.38,4.45 2.22,5.09 -1.43,-1.28 -5.42,-3.83 -9.71,-0.49 l 7.97,2.72 -10.04,0.78 v 10.37 l -11.95,10.64 v 4.08 l 8.18,-7.2 v 3.77 l -14.4,12.93 v 3.94 l 18.18,-16.34 v 0.04 l 4.58,-4.1 0.04,0.04 c 2.71,-2.24 3.82,-3.35 5.42,-4.15 1.9,-1.28 2.23,0.14 2.54,2.22 0.48,1.74 2.54,3.52 6.86,-0.47 12.74,-11.48 26.11,-17.68 40.27,-24.52 -7.65,5.24 -21.8,13.04 -26.6,18.31 -2.07,2.38 0,8.27 3.34,5.73 6.06,-3.99 14.02,-4.61 18,-4.47 1.91,0 3.99,-1.27 5.1,-2.87 1.11,-1.43 1.11,-3.03 -1.43,-3.19 13.06,-3.96 16.41,-5.08 27.23,-6.04 2.86,-0.16 4.62,-1.75 5.09,-4.15 0.49,-2.21 -0.64,-2.86 -3.33,-3.17 -3.19,-0.47 -8.77,0.49 -14.35,1.43 12.59,-5.4 27.87,-8.28 39.98,-11.78 3.82,-1.11 4.31,-2.23 4.47,-4.46 0.46,-2.39 -1.45,-2.39 -5.75,-2.39 -8.75,0.47 -21.81,1.27 -41.71,7.01 18.79,-9.41 29.29,-13.87 46.35,-18.15 4.61,-1.29 5.41,-2.4 5.73,-4.79 0.79,-2.71 -1.45,-2.71 -3.03,-2.39 -2.4,0.16 -8.12,0 -19.77,3.5 11.34,-4.92 23.73,-10.67 32.65,-13.53 1.93,-0.65 3.04,-1.91 3.04,-3.99 0,-1.58 -0.47,-1.75 -2.38,-1.75 -3.83,0 -10.04,1.27 -17.52,3.51 15.28,-6.52 19.9,-8.76 30.09,-10.51 3.36,-0.79 3.99,-1.9 4.14,-3.97 0.49,-2.86 -1.42,-2.71 -3.65,-2.86 m -151.62,51.9 c -0.16,-1.27 -0.79,-2.05 -1.9,-2.7 2.23,-5.41 4.44,-9.72 8.76,-15.45 -3.98,7.98 -5.89,14.65 -6.86,18.15 m -13.85,-4.45 c 3.03,-32.5 17.84,-56.38 27.88,-67.36 -14.5,21.35 -22.78,50.96 -27.88,67.36 m 54.15,9.22 c 18.96,-17.98 44.91,-37.09 77.72,-45.21 -27.71,9.86 -65.77,35.84 -77.72,45.21"
         id="path4"
         style="opacity:1" /><polygon
         class="cls-2"
         points="565.29,64.36 572.14,64.36 581,88.26 589.61,64.36 594.21,64.36 583.13,95.25 576.71,95.25 "
         id="polygon4"
         style="opacity:1" /><path
         class="cls-2"
         d="m 604.38,78.38 h 1.47 c 2.67,0 4.48,-0.57 5.49,-1.72 1.01,-1.16 1.53,-2.47 1.53,-3.93 0,-1.27 -0.41,-2.27 -1.23,-3.02 -0.83,-0.74 -2.51,-1.12 -5.02,-1.12 h -2.24 z m -6.06,16.87 V 64.36 h 11.56 c 2.36,0 4.17,0.29 5.4,0.88 1.25,0.6 2.23,1.49 2.94,2.7 0.71,1.2 1.07,2.56 1.07,4.08 0,1.81 -0.52,3.52 -1.57,5.13 -1.04,1.61 -2.53,2.83 -4.42,3.68 l 10.11,14.43 h -7.83 L 607.9,82.63 h -3.53 v 12.63 h -6.06 z"
         id="path5"
         style="opacity:1" /><rect
         class="cls-2"
         x="627.58002"
         y="64.360001"
         width="6.4299998"
         height="30.889999"
         id="rect5"
         style="opacity:1" /><path
         class="cls-2"
         d="m 636.48,100.68 -0.05,-4.59 c 1.66,0.65 3.41,0.98 5.19,0.98 0.75,0 1.41,-0.14 1.99,-0.42 0.57,-0.28 1.02,-0.74 1.37,-1.35 0.34,-0.63 0.51,-1.92 0.51,-3.9 V 64.35 h 6.43 v 26.37 c 0,2.89 -0.33,5 -0.98,6.32 -0.68,1.33 -1.72,2.39 -3.16,3.18 -1.43,0.81 -3.33,1.2 -5.72,1.2 -1.77,0 -3.61,-0.24 -5.57,-0.75"
         id="path6"
         style="opacity:1" /><polygon
         class="cls-2"
         points="677.19,77.22 677.19,81.47 666.14,81.47 666.14,90.87 680.48,90.87 680.48,95.25 659.71,95.25 659.71,64.36 679.51,64.36 679.51,68.61 666.14,68.61 666.14,77.22 "
         id="polygon6"
         style="opacity:1" /><path
         class="cls-2"
         d="m 568.37,120.79 h 6.44 v 18.95 c 0,3.42 0.57,5.69 1.74,6.81 1.16,1.12 2.65,1.66 4.52,1.66 1.87,0 3.27,-0.55 4.34,-1.65 1.08,-1.09 1.63,-3.22 1.63,-6.37 v -19.4 h 5.59 v 18.97 c 0,3.57 -0.45,6.14 -1.35,7.69 -0.9,1.56 -2.18,2.78 -3.88,3.67 -1.7,0.88 -3.86,1.33 -6.46,1.33 -2.6,0 -4.76,-0.41 -6.59,-1.25 -1.83,-0.82 -3.29,-2.05 -4.36,-3.69 -1.07,-1.64 -1.61,-4.23 -1.61,-7.81 v -18.91 z"
         id="path7"
         style="opacity:1" /><polygon
         class="cls-2"
         points="600.28,151.68 600.28,120.79 605.96,120.79 620.23,141.89 620.23,120.79 625.4,120.79 625.4,151.68 619.62,151.68 605.44,130.58 605.44,151.68 "
         id="polygon7"
         style="opacity:1" /><rect
         class="cls-2"
         x="633.82001"
         y="120.79"
         width="6.4099998"
         height="30.879999"
         id="rect7"
         style="opacity:1" /><polygon
         class="cls-2"
         points="644.41,120.79 651.27,120.79 660.14,144.69 668.73,120.79 673.33,120.79 662.26,151.68 655.83,151.68 "
         id="polygon8"
         style="opacity:1" /><polygon
         class="cls-2"
         points="694.23,133.65 694.23,137.91 683.19,137.91 683.19,147.3 697.53,147.3 697.53,151.68 676.75,151.68 676.75,120.79 696.55,120.79 696.55,125.05 683.19,125.05 683.19,133.65 "
         id="polygon9"
         style="opacity:1" /><path
         class="cls-2"
         d="m 708.92,134.82 h 1.48 c 2.65,0 4.48,-0.58 5.49,-1.73 1.02,-1.15 1.53,-2.46 1.53,-3.92 0,-1.27 -0.41,-2.27 -1.24,-3.02 -0.82,-0.75 -2.5,-1.12 -5.02,-1.12 h -2.24 z m -6.04,16.86 V 120.8 h 11.55 c 2.36,0 4.17,0.29 5.41,0.88 1.24,0.59 2.21,1.49 2.93,2.69 0.72,1.21 1.08,2.57 1.08,4.08 0,1.82 -0.52,3.52 -1.57,5.13 -1.05,1.61 -2.52,2.84 -4.43,3.68 l 10.11,14.42 h -7.83 l -7.67,-12.62 h -3.54 v 12.62 z"
         id="path9"
         style="opacity:1" /><path
         class="cls-2"
         d="m 729.89,151.42 v -5.31 c 2.42,1.01 4.21,1.61 5.42,1.8 1.19,0.21 2.28,0.3 3.28,0.3 1.81,0 3.16,-0.4 4.03,-1.21 0.9,-0.81 1.34,-1.77 1.34,-2.9 0,-0.86 -0.24,-1.64 -0.74,-2.34 -0.49,-0.68 -1.71,-1.57 -3.65,-2.66 l -2.09,-1.15 c -2.97,-1.66 -4.98,-3.19 -6.04,-4.59 -1.07,-1.4 -1.61,-3.04 -1.61,-4.89 0,-2.32 0.9,-4.31 2.67,-5.98 1.79,-1.66 4.34,-2.48 7.68,-2.48 2.48,0 5.28,0.34 8.4,1.06 v 4.95 c -3.19,-1.19 -5.73,-1.77 -7.61,-1.77 -1.56,0 -2.74,0.33 -3.55,1.01 -0.82,0.68 -1.21,1.49 -1.21,2.43 0,0.72 0.25,1.39 0.74,2.02 0.49,0.63 1.69,1.49 3.63,2.57 l 2.24,1.24 c 3.41,1.9 5.59,3.56 6.53,4.97 0.92,1.42 1.39,3.01 1.39,4.78 0,2.53 -0.97,4.69 -2.9,6.48 -1.93,1.8 -5,2.69 -9.22,2.69 -2.49,0 -5.41,-0.35 -8.73,-1.04"
         id="path10"
         style="opacity:1" /><rect
         class="cls-2"
         x="756.04999"
         y="120.79"
         width="6.4299998"
         height="30.879999"
         id="rect10"
         style="opacity:1" /><polygon
         class="cls-2"
         points="764.78,125.05 764.78,120.79 793.34,120.79 793.34,125.05 782.26,125.05 782.26,151.68 775.84,151.68 775.84,125.05 "
         id="polygon10"
         style="opacity:1" /><polygon
         class="cls-2"
         points="813.18,133.65 813.18,137.91 802.12,137.91 802.12,147.3 816.47,147.3 816.47,151.68 795.7,151.68 795.7,120.79 815.49,120.79 815.49,125.05 802.12,125.05 802.12,133.65 "
         id="polygon11"
         style="opacity:1" /><rect
         class="cls-2"
         x="821.67999"
         y="120.79"
         width="6.4400001"
         height="30.879999"
         id="rect11"
         style="opacity:1" /><path
         class="cls-2"
         d="m 574.72,195.75 h 9.6 l -4.79,-12.3 z m -9.48,12.37 12.02,-30.9 h 6.45 l 12.03,30.9 h -6.61 l -3.21,-8.25 h -12.79 l -3.2,8.25 h -4.68 z"
         id="path11"
         style="opacity:1" /><polygon
         class="cls-2"
         points="630.85,177.22 630.85,208.12 624.92,208.12 624.92,184.8 617.38,206.05 612.19,206.05 604.8,184.48 604.8,208.12 599.74,208.12 599.74,177.22 608.24,177.22 615.71,198.95 623.38,177.22 "
         id="polygon12"
         style="opacity:1" /><path
         class="cls-2"
         d="m 637.19,207.84 v -5.3 c 2.41,1.01 4.22,1.62 5.4,1.83 1.2,0.19 2.29,0.29 3.3,0.29 1.79,0 3.15,-0.41 4.04,-1.21 0.9,-0.8 1.34,-1.77 1.34,-2.9 0,-0.87 -0.24,-1.64 -0.75,-2.34 -0.5,-0.68 -1.71,-1.56 -3.65,-2.66 l -2.09,-1.14 c -2.98,-1.66 -4.99,-3.19 -6.05,-4.6 -1.06,-1.4 -1.61,-3.03 -1.61,-4.89 0,-2.32 0.88,-4.31 2.67,-5.97 1.78,-1.66 4.34,-2.49 7.66,-2.49 2.5,0 5.31,0.35 8.42,1.06 v 4.96 c -3.18,-1.19 -5.73,-1.79 -7.61,-1.79 -1.54,0 -2.72,0.35 -3.54,1.02 -0.82,0.69 -1.22,1.49 -1.22,2.44 0,0.73 0.25,1.4 0.74,2.02 0.49,0.63 1.7,1.48 3.63,2.57 l 2.24,1.23 c 3.41,1.91 5.59,3.57 6.52,4.99 0.93,1.41 1.4,3 1.4,4.77 0,2.52 -0.97,4.69 -2.91,6.48 -1.93,1.78 -4.99,2.69 -9.21,2.69 -2.5,0 -5.41,-0.35 -8.73,-1.05"
         id="path12"
         style="opacity:1" /><polygon
         class="cls-2"
         points="657.78,181.48 657.78,177.22 686.33,177.22 686.33,181.48 675.27,181.48 675.27,208.12 668.84,208.12 668.84,181.48 "
         id="polygon13"
         style="opacity:1" /><polygon
         class="cls-2"
         points="706.35,190.08 706.35,194.34 695.3,194.34 695.3,203.74 709.65,203.74 709.65,208.12 688.88,208.12 688.88,177.22 708.67,177.22 708.67,181.48 695.3,181.48 695.3,190.08 "
         id="polygon14"
         style="opacity:1" /><path
         class="cls-2"
         d="m 720.62,191.25 h 1.47 c 2.66,0 4.49,-0.58 5.51,-1.74 1.01,-1.16 1.5,-2.47 1.5,-3.93 0,-1.26 -0.41,-2.26 -1.22,-3.01 -0.83,-0.74 -2.51,-1.11 -5.03,-1.11 h -2.24 v 9.79 z m -6.06,16.86 v -30.9 h 11.55 c 2.37,0 4.18,0.3 5.42,0.88 1.23,0.6 2.21,1.49 2.92,2.7 0.72,1.2 1.09,2.56 1.09,4.08 0,1.81 -0.53,3.51 -1.57,5.13 -1.04,1.61 -2.51,2.83 -4.43,3.68 l 10.12,14.42 h -7.83 l -7.68,-12.63 h -3.53 v 12.63 h -6.06 z"
         id="path14"
         style="opacity:1" /><path
         class="cls-2"
         d="m 749.39,203.74 h 4.79 c 2.51,0 4.42,-0.4 5.76,-1.17 1.31,-0.78 2.38,-2.1 3.15,-3.96 0.77,-1.85 1.15,-3.93 1.15,-6.21 0,-2.28 -0.37,-4.12 -1.13,-5.81 -0.75,-1.68 -1.79,-2.95 -3.11,-3.82 -1.33,-0.88 -3.59,-1.31 -6.75,-1.31 h -3.87 v 22.28 z m -6.44,4.38 v -30.9 h 13.31 c 3.55,0 6.33,0.57 8.32,1.72 1.97,1.15 3.56,2.82 4.73,5.04 1.17,2.22 1.76,4.91 1.76,8.05 0,3.14 -0.56,5.83 -1.69,8.26 -1.11,2.41 -2.74,4.33 -4.88,5.73 -2.16,1.41 -5.09,2.11 -8.81,2.11 h -12.74 z"
         id="path15"
         style="opacity:1" /><path
         class="cls-2"
         d="m 781.33,195.75 h 9.58 l -4.79,-12.3 z m -9.49,12.37 12.02,-30.9 h 6.44 l 12.02,30.9 h -6.6 l -3.22,-8.25 h -12.78 l -3.22,8.25 z"
         id="path16"
         style="opacity:1" /><polygon
         class="cls-2"
         points="836.58,177.22 836.58,208.12 830.65,208.12 830.65,184.8 823.1,206.05 817.94,206.05 810.53,184.48 810.53,208.12 805.47,208.12 805.47,177.22 813.98,177.22 821.43,198.95 829.1,177.22 "
         id="polygon16"
         style="opacity:1" /><path
         class="cls-2"
         d="m 461.74,165.44 c -1.74,-4.77 -6.36,-7.96 -12.73,-7.48 -3.49,-6.69 -9.08,-3.53 -10.67,-1.58 1.75,1.58 3.17,2.23 5.25,2.54 v 1.43 c -3.97,-0.15 -5.25,-1.74 -7.95,-4.63 -1.12,9.56 10.03,12.93 13.53,5.12 5.26,-0.16 8.45,2.22 9.56,5.57 1.09,3.34 0,7.02 -1.75,8.76 -3.19,3.82 -8.29,3.82 -12.9,1.43 -2.85,-1.43 -5.9,-4.46 -8.6,-7.32 -3.97,-4.46 -6.22,-6.38 -9.25,-7.97 -1.66,-0.79 -3.32,-1.19 -4.94,-1.43 -0.95,-0.17 -1.9,-0.29 -2.85,-0.32 -0.92,0 -1.76,0.1 -2.54,0.25 -6.81,0.75 -13.72,4.1 -21.99,4.85 h -4.46 c -2.77,2.41 -16.07,14.33 -16.07,14.33 0.63,4.94 0.78,7.33 0.78,11.78 0,3.68 -0.15,5.44 -0.15,7.03 -0.16,1.58 -0.48,2.86 -0.95,4.12 -0.32,1.13 -1.28,2.07 -2.87,2.24 -1.43,0.3 -4.79,-2.24 -5.89,-0.64 -0.95,1.28 0.16,4.3 1.1,5.09 h 9.41 c 1.12,-2.37 1.6,-3.81 2.23,-5.24 0.81,-1.12 1.45,-2.89 2.07,-3.99 0.65,-1.1 1.28,-2.71 1.61,-3.81 0.15,-1.12 0.63,-2.25 0.79,-3.02 0.65,-1.78 1.58,-3.38 2.23,-4.3 0.15,-0.3 0.35,-0.54 0.51,-0.79 0.42,0.62 0.82,1.23 1.08,1.72 2.24,3.51 4.14,6.23 7.33,7.5 1.27,0.63 2.07,1.13 2.54,1.61 0.47,0.46 0.47,1.91 0.33,2.85 0,1.28 -0.49,2.4 -1.75,2.87 -2.08,0.8 -5.41,-2.22 -6.7,-0.62 -1.11,1.27 0.17,3.66 1.29,5.24 h 8.58 c 2.09,-3.34 2.88,-7.95 2.88,-11.78 0,-3.83 0,-4.94 -2.4,-5.89 -0.8,-0.49 -1.59,-2.4 -2.23,-4.46 0,-0.24 0.01,-0.64 0.02,-1.1 4.09,-1.36 8.62,-3.75 13.58,-7.39 0.03,0.65 0.05,1.31 0.11,1.97 0.79,5.42 1.42,10.35 5.57,14.33 1.1,1.12 2.05,2.24 2.21,2.88 0,0.47 -0.63,2.21 -1.11,3.02 -0.94,2.07 -3.02,3.81 -4.61,3.98 -2.06,0.3 -4.46,-2.39 -6.07,-0.79 -1.42,1.42 0.49,4.45 1.44,5.24 h 8.75 c 2.87,-5.24 6.85,-9.7 8.29,-12.57 0.79,-2.07 0.79,-2.87 -0.81,-3.49 -2.86,-1.61 -2.54,-5.11 -1.75,-9.08 0.21,-0.66 0.54,-1.32 0.89,-1.97 2.16,6.03 4.99,11.67 11.54,13.42 1.1,0.15 2.7,0.96 2.87,1.29 0,0.31 0,1.59 -0.17,2.53 -0.31,1.92 -1.43,4.15 -2.87,5.26 -1.57,1.28 -5.56,-2.87 -6.85,-0.47 -0.94,1.92 0.66,4.47 1.45,5.09 h 8.44 c 2.37,-5.24 4.46,-9.87 5.1,-13.2 0.63,-3.99 0.63,-5.42 -2.4,-6.05 -1.59,-0.18 -2.87,-0.81 -3.34,-3.03 -1.12,-3.98 -0.96,-10.67 -3.97,-15.28 3.33,3.97 6.98,6.84 10.17,8.44 7.33,3.98 14.98,2.53 18.62,-2.71 2.39,-3.99 2.39,-8.45 1.44,-11.31"
         id="path17"
         style="opacity:1" /></g></g></svg>
